# xmcd
#
# Track frame offsets:
#	150
#	12293
#	19771
#	30908
#	43220
#	49040
#	60781
#	75514
#	86964
#	101666
#	115876
#	122191
#	127818
#	138608
#
# Disc length: 1989 seconds
#
# Revision: 1
# Processed by: cddbd v1.5.1PL2 Copyright (c) Steve Scherf et al.
# Submitted via: EasyCDDAExtractor 6.2.0.3
#
DISCID=ae07c30e
DTITLE=Joecephus And The George Jonestown Massacre
DYEAR=2006
DGENRE=Country
TTITLE0=The Irony Of It All
TTITLE1=Happy Hour
TTITLE2=Time For A Change
TTITLE3=Ramblin' Man
TTITLE4=Someday I'll Sober Up
TTITLE5=Gone To Stay
TTITLE6=Knoxville Girl
TTITLE7=Cocaine Blues
TTITLE8=Cityfied
TTITLE9=Drinking Back Yesterday
TTITLE10=Quittin' Time
TTITLE11=No Turning Back
TTITLE12=Going Back To Memphis
TTITLE13=Cum Stains On The Pillow
EXTD=
EXTT0=
EXTT1=
EXTT2=
EXTT3=
EXTT4=
EXTT5=
EXTT6=
EXTT7=
EXTT8=
EXTT9=
EXTT10=
EXTT11=
EXTT12=
EXTT13=
PLAYORDER=
